<svg xmlns="http://www.w3.org/2000/svg" viewBox="0 0 7307 7307" width="512" height="512" aria-label="Infinity Health Centre logo"><path fill="#0044ce" d="M5776.03 4200.67c-49.707 192.709-124.381 375.212-223.421 547.412h-1899.33c0-36.084 3.418-71.712 10.206-106.868 7.34-35.124 17.627-69.255 31.25-102.425 13.671-33.171 30.745-64.876 50.748-94.662 20.004-29.752 42.416-57.584 67.839-82.926 25.374-25.374 53.157-48.324 82.91-68.327s61.458-36.588 94.678-50.244c33.154-14.176 67.334-24.382 102.946-31.217 35.091-7.325 70.719-10.743 106.331-10.743h1003.09c53.663-151.709 84.408-308.333 91.7-468.831 1.465-26.335 1.969-52.214 1.969-78.581 0-25.846-.504-52.181-1.969-78.043-7.292-161.003-38.037-317.139-91.7-469.336h-455.712v547.379a557.08 557.08 0 01-106.332-10.221c-35.628-7.324-69.743-17.578-102.913-31.25-33.171-13.656-64.925-30.697-94.662-50.7-29.752-20.003-57.584-42.464-82.926-67.839-25.407-25.374-48.324-53.206-67.839-82.91-19.987-30.289-37.076-61.507-50.748-94.677-13.656-33.204-24.366-67.367-31.202-102.946-6.835-35.124-10.758-70.752-10.758-106.836v-1002.62c-151.742-53.678-307.861-84.375-468.864-91.715-25.83-1.465-52.213-1.953-78.044-1.953-26.334 0-52.213.488-78.58 1.953-160.466 7.34-317.09 38.037-468.832 91.715v325.407h-547.379V1753.91c304.411-175.618 632.243-272.2 983.545-289.746h221.989c257.584 12.663 505.468 69.255 742.545 170.248 82.959 34.635 163.461 74.625 241 119.498v805.046h805.045c99.04 172.217 173.714 354.671 223.421 547.379 37.126 142.953 59.082 288.379 66.407 436.166v222.005c-7.325 147.363-29.281 293.197-66.407 436.165"/><path fill="#0cf" d="M3492.72 2945.83c-106.836 106.869-235.629 160.498-386.866 160.043h-1003.09c-53.662 152.197-84.408 308.333-91.748 469.336-.912 25.862-1.921 52.197-1.921 78.043 0 26.367.505 52.246 1.921 78.581 7.34 160.498 38.086 317.122 91.748 468.831h455.713v-547.412c36.084 0 71.208 3.906 106.836 10.742 35.123 6.836 69.287 17.546 102.457 31.202 33.171 13.671 64.877 30.306 94.629 50.293 29.786 20.003 57.569 42.919 82.959 68.294 25.326 25.374 48.291 53.174 68.278 82.959 20.004 29.704 36.638 61.458 50.261 94.629 14.16 33.17 24.365 67.334 31.201 102.457 7.34 35.629 10.758 71.257 10.758 106.836v1003.08c151.742 53.679 308.366 84.424 468.832 91.749 26.367 1.009 52.246 1.969 78.58 1.969 25.831 0 52.214-.96 78.044-1.969 161.003-7.325 317.123-38.07 468.864-91.749V4878.37h547.38v674.723c-172.201 99.024-354.672 173.194-547.38 223.438-142.952 37.093-288.33 59.049-436.165 66.374h-221.989c-350.798-17.595-679.134-114.177-983.545-289.812V4748.08h-805.046c-175.635-304.459-272.217-632.291-289.778-983.577v-222.005c18.05-351.254 114.632-679.118 289.778-983.545h1899.84c0 151.253-53.173 280.045-160.546 386.881M6631.32 4664.66c50.749-232.243 76.074-466.911 76.074-704.509 0-1817.87-1478.74-3296.66-3296.61-3296.66-500.082 0-983.545 110.758-1422.17 320.589 269.791-218.131 568.408-385.465 895.247-501.09 327.376-115.625 664.502-172.706 1011.91-172.201 409.798 0 807.422 79.997 1181.62 238.542 180.045 76.123 351.302 169.287 513.753 278.58 162.451 109.799 312.744 233.708 451.286 371.794 138.541 138.542 262.467 288.835 371.761 451.286 109.293 162.467 202.49 333.708 279.085 514.209 158.073 374.251 238.574 771.875 238.574 1181.67 0 413.249-81.95 814.29-242.952 1190.92-18.05 42.952-37.093 85.417-57.585 126.872"/><path fill="#0044ce" d="M3653.27 0C1635.37 0 0 1635.87 0 3653.26c0 2017.9 1635.37 3653.3 3653.27 3653.3 2017.42 0 3653.29-1635.4 3653.29-3653.3C7306.56 1635.88 4671.19 0 3653.27 0zm242.5 6513.25c-1749.09 0-3166.89-1417.79-3166.89-3166.37 0-1749.09 1417.81-3166.37 3166.89-3166.37 1748.55 0 3166.37 1417.29 3166.37 3166.37 0 1748.58-1417.82 3166.37-3166.37 3166.37"/></svg>